# Blender v2.90.1 OBJ File: ''
# www.blender.org
mtllib plane.mtl
o Cube_Cube.001
v -0.139001 -0.139001 1.748898
v -0.139001 0.139001 1.748898
v -1.000000 -1.000000 -1.000000
v -1.000000 1.000000 -1.000000
v 0.139001 -0.139001 1.748898
v 0.139001 0.139001 1.748898
v 1.000000 -1.000000 -1.000000
v 1.000000 1.000000 -1.000000
v -1.000000 -1.000000 -4.111380
v -1.000000 1.000000 -4.111380
v 1.000000 -1.000000 -4.111380
v 1.000000 1.000000 -4.111380
v -1.000000 -1.000000 -8.574461
v -1.000000 1.000000 -8.574461
v 1.000000 -1.000000 -8.574461
v 1.000000 1.000000 -8.574461
v -4.994773 -1.000000 -13.548702
v -4.994773 1.000000 -13.548702
v 4.994773 -1.000000 -13.548702
v 4.994773 1.000000 -13.548702
v 7.127998 0.803879 -4.549031
v 7.127998 -0.803879 -4.549031
v 7.127998 0.803879 -8.136809
v 7.127998 -0.803879 -8.136809
v -7.364380 0.805742 -4.544874
v -7.364380 -0.805742 -4.544874
v -7.364380 0.805742 -8.140966
v -7.364380 -0.805742 -8.140966
vt 0.375000 0.000000
vt 0.625000 0.000000
vt 0.625000 0.250000
vt 0.375000 0.250000
vt 0.875000 0.500000
vt 0.625000 0.500000
vt 0.625000 0.500000
vt 0.875000 0.500000
vt 0.375000 0.500000
vt 0.625000 0.750000
vt 0.375000 0.750000
vt 0.625000 1.000000
vt 0.375000 1.000000
vt 0.125000 0.500000
vt 0.125000 0.750000
vt 0.875000 0.750000
vt 0.625000 0.500000
vt 0.875000 0.500000
vt 0.625000 0.250000
vt 0.375000 0.250000
vt 0.375000 0.500000
vt 0.125000 0.500000
vt 0.375000 0.500000
vt 0.375000 0.500000
vt 0.625000 0.500000
vt 0.875000 0.500000
vt 0.875000 0.500000
vt 0.375000 0.500000
vt 0.375000 0.500000
vt 0.125000 0.500000
vt 0.375000 0.250000
vt 0.625000 0.250000
vt 0.125000 0.500000
vt 0.875000 0.500000
vt 0.375000 0.250000
vt 0.625000 0.250000
vt 0.625000 0.500000
vt 0.625000 0.500000
vt 0.375000 0.250000
vt 0.625000 0.250000
vt 0.625000 0.250000
vt 0.375000 0.250000
vt 0.125000 0.500000
vt 0.125000 0.500000
vn -0.9543 0.0000 0.2989
vn 0.0000 1.0000 0.0000
vn 0.9543 0.0000 0.2989
vn 0.0000 0.0000 1.0000
vn 0.0000 -0.9543 0.2989
vn 0.0000 0.9543 0.2989
vn -1.0000 0.0000 0.0000
vn 1.0000 0.0000 0.0000
vn 0.0000 -1.0000 0.0000
vn 0.7797 0.0000 0.6262
vn -0.0305 0.9995 0.0000
vn 0.0320 -0.9995 0.0000
vn 0.0000 0.0000 -1.0000
vn -0.7797 0.0000 0.6262
vn 0.0712 0.0000 -0.9975
vn 0.0712 0.0000 0.9975
vn 0.0320 0.9995 0.0000
vn -0.0680 0.0000 0.9977
vn -0.0305 -0.9995 0.0000
vn -0.0680 0.0000 -0.9977
usemtl None
s off
f 1/1/1 2/2/1 4/3/1 3/4/1
f 4/5/2 8/6/2 12/7/2 10/8/2
f 7/9/3 8/6/3 6/10/3 5/11/3
f 5/11/4 6/10/4 2/12/4 1/13/4
f 3/14/5 7/9/5 5/11/5 1/15/5
f 8/6/6 4/5/6 2/16/6 6/10/6
f 10/8/2 12/7/2 16/17/2 14/18/2
f 3/4/7 4/3/7 10/19/7 9/20/7
f 8/6/8 7/9/8 11/21/8 12/7/8
f 7/9/9 3/14/9 9/22/9 11/21/9
f 16/17/10 15/23/10 19/24/10 20/25/10
f 10/8/11 14/18/11 27/26/11 25/27/11
f 11/21/12 15/23/12 24/28/12 22/29/12
f 11/21/9 9/22/9 13/30/9 15/23/9
f 17/31/13 18/32/13 20/25/13 19/24/13
f 15/23/9 13/30/9 17/33/9 19/24/9
f 14/18/2 16/17/2 20/25/2 18/34/2
f 13/35/14 14/36/14 18/32/14 17/31/14
f 21/37/8 22/29/8 24/28/8 23/38/8
f 15/23/15 16/17/15 23/38/15 24/28/15
f 12/7/16 11/21/16 22/29/16 21/37/16
f 16/17/17 12/7/17 21/37/17 23/38/17
f 26/39/7 25/40/7 27/41/7 28/42/7
f 9/20/18 10/19/18 25/40/18 26/39/18
f 13/30/19 9/22/19 26/43/19 28/44/19
f 14/36/20 13/35/20 28/42/20 27/41/20
